<svg xmlns="http://www.w3.org/2000/svg" viewBox="0 0 69 8"><title>Element 4</title><g id="Ebene_2" data-name="Ebene 2"><g id="Ebene_1-2" data-name="Ebene 1"><path d="M68,8c-2.88,0-4.31-1.79-5.57-3.38S60.34,2,58.42,2s-2.83,1.16-4,2.62S51.72,8,48.85,8s-4.31-1.79-5.57-3.38S41.19,2,39.28,2s-2.84,1.16-4,2.62S32.58,8,29.7,8s-4.3-1.79-5.56-3.38S22,2,20.13,2s-2.83,1.16-4,2.62S13.44,8,10.57,8,6.26,6.21,5,4.62,2.91,2,1,2A1,1,0,0,1,1,0C3.87,0,5.3,1.79,6.57,3.38S8.66,6,10.57,6s2.83-1.16,4-2.62S17.26,0,20.13,0s4.31,1.79,5.57,3.38S27.79,6,29.7,6s2.84-1.16,4-2.62S36.4,0,39.28,0s4.3,1.79,5.56,3.38S46.94,6,48.85,6s2.83-1.16,4-2.62S55.55,0,58.42,0,62.73,1.79,64,3.38,66.09,6,68,6a1,1,0,0,1,0,2Z"/></g></g></svg>