<svg xmlns="http://www.w3.org/2000/svg" viewBox="0 0 57.74 9.51"><defs><style>.cls-1{fill:#1d1d1b;}</style></defs><title>Element 5</title><g id="Ebene_2" data-name="Ebene 2"><g id="Ebene_1-2" data-name="Ebene 1"><path class="cls-1" d="M49.77,9.51A9.43,9.43,0,0,1,42,5.33a7.33,7.33,0,0,0-12.29,0A9.43,9.43,0,0,1,21.9,9.51h0a9.43,9.43,0,0,1-7.79-4.18A7.44,7.44,0,0,0,8,2,7.44,7.44,0,0,0,1.82,5.33a1,1,0,0,1-1.39.25,1,1,0,0,1-.25-1.4A9.45,9.45,0,0,1,8,0a9.45,9.45,0,0,1,7.79,4.18A7.44,7.44,0,0,0,21.9,7.51h0a7.44,7.44,0,0,0,6.15-3.33,9.34,9.34,0,0,1,15.57,0,7.47,7.47,0,0,0,6.15,3.33,7.44,7.44,0,0,0,6.15-3.33,1,1,0,0,1,1.39-.25,1,1,0,0,1,.25,1.4A9.43,9.43,0,0,1,49.77,9.51Z"/></g></g></svg>