<svg xmlns="http://www.w3.org/2000/svg" viewBox="0 0 89 8"><title>Element 6</title><g id="Ebene_2" data-name="Ebene 2"><g id="Ebene_1-2" data-name="Ebene 1"><path d="M88,8c-3.51,0-5.32-1.74-6.91-3.28S78.27,2,75.57,2s-4,1.26-5.53,2.72S66.64,8,63.13,8s-5.31-1.74-6.91-3.28S53.41,2,50.71,2s-4,1.26-5.53,2.72S41.79,8,38.27,8,33,6.26,31.37,4.72,28.55,2,25.85,2s-4,1.26-5.52,2.72S16.94,8,13.43,8,8.11,6.26,6.52,4.72,3.7,2,1,2A1,1,0,0,1,1,0C4.51,0,6.32,1.74,7.91,3.28S10.72,6,13.43,6s4-1.26,5.51-2.72S22.34,0,25.85,0s5.31,1.74,6.91,3.28S35.57,6,38.27,6s4-1.26,5.52-2.72S47.19,0,50.71,0,56,1.74,57.61,3.28,60.43,6,63.13,6s4-1.26,5.52-2.72S72.05,0,75.57,0s5.31,1.74,6.91,3.28S85.29,6,88,6a1,1,0,0,1,0,2Z"/></g></g></svg>