<?xml version="1.0" encoding="utf-8"?>
<!-- Generator: Adobe Illustrator 16.0.0, SVG Export Plug-In . SVG Version: 6.00 Build 0)  -->
<!DOCTYPE svg PUBLIC "-//W3C//DTD SVG 1.1//EN" "http://www.w3.org/Graphics/SVG/1.1/DTD/svg11.dtd">
<svg version="1.1" id="Layer_1" xmlns="http://www.w3.org/2000/svg" xmlns:xlink="http://www.w3.org/1999/xlink" x="0px" y="0px"
	 width="3118.11px" height="212.6px" viewBox="0 0 3118.11 212.6" enable-background="new 0 0 3118.11 212.6" xml:space="preserve">
<g>
	<g>
		<path d="M1567.351,165.359l94.607-94.609c2.19-2.188,3.396-5.109,3.396-8.225c0-3.114-1.206-6.035-3.396-8.224l-6.965-6.968
			c-4.539-4.533-11.916-4.533-16.448,0l-79.446,79.447l-79.534-79.535c-2.189-2.188-5.109-3.396-8.222-3.396
			c-3.117,0-6.036,1.209-8.228,3.396l-6.964,6.968c-2.19,2.189-3.396,5.109-3.396,8.224c0,3.115,1.206,6.036,3.396,8.225
			l94.694,94.697c2.196,2.193,5.13,3.398,8.248,3.393C1562.224,168.757,1565.156,167.552,1567.351,165.359z"/>
	</g>
</g>
</svg>
