<?xml version="1.0" encoding="utf-8"?>
<!-- Generator: Adobe Illustrator 16.0.0, SVG Export Plug-In . SVG Version: 6.00 Build 0)  -->
<!DOCTYPE svg PUBLIC "-//W3C//DTD SVG 1.0//EN" "http://www.w3.org/TR/2001/REC-SVG-20010904/DTD/svg10.dtd">
<svg version="1.0" id="Layer_1" xmlns="http://www.w3.org/2000/svg" xmlns:xlink="http://www.w3.org/1999/xlink" x="0px" y="0px"
	 width="3118.11px" height="212.6px" viewBox="0 0 3118.11 212.6" enable-background="new 0 0 3118.11 212.6" xml:space="preserve">
<g>
	<g>
		<path fill="#FCFCFC" d="M1618.114,98.004l-94.609-94.607c-2.188-2.19-5.109-3.396-8.225-3.396c-3.114,0-6.035,1.206-8.224,3.396
			l-6.968,6.965c-4.533,4.539-4.533,11.916,0,16.448l79.447,79.446l-79.535,79.534c-2.188,2.189-3.396,5.109-3.396,8.222
			c0,3.117,1.209,6.036,3.396,8.228l6.968,6.964c2.189,2.19,5.109,3.396,8.224,3.396c3.115,0,6.036-1.206,8.225-3.396l94.697-94.694
			c2.193-2.196,3.398-5.13,3.393-8.248C1621.512,103.131,1620.307,100.199,1618.114,98.004z"/>
	</g>
</g>
</svg>
