<?xml version="1.0" encoding="utf-8"?>
<!-- Generator: Adobe Illustrator 16.0.4, SVG Export Plug-In . SVG Version: 6.00 Build 0)  -->
<!DOCTYPE svg PUBLIC "-//W3C//DTD SVG 1.1//EN" "http://www.w3.org/Graphics/SVG/1.1/DTD/svg11.dtd">
<svg version="1.1" id="Ebene_1" xmlns="http://www.w3.org/2000/svg" xmlns:xlink="http://www.w3.org/1999/xlink" x="0px" y="0px"
	 width="201.543px" height="201.543px" viewBox="0 0 201.543 201.543" enable-background="new 0 0 201.543 201.543"
	 xml:space="preserve">
<g>
	<defs>
		<rect id="SVGID_1_" y="0" width="201.543" height="201.543"/>
	</defs>
	<clipPath id="SVGID_2_">
		<use xlink:href="#SVGID_1_"  overflow="visible"/>
	</clipPath>
	<circle clip-path="url(#SVGID_2_)" fill="none" stroke="#000" stroke-width="9.372" cx="100.771" cy="100.771" r="96.085"/>
	<path clip-path="url(#SVGID_2_)" fill="#000" d="M118.063,39.134c0,0-6.731,0-6.731,6.731v109.812c0,0,0,6.731,6.731,6.731
		h3.543c0,0,6.733,0,6.733-6.731V45.866c0,0,0-6.731-6.733-6.731H118.063z"/>
	<path clip-path="url(#SVGID_2_)" fill="#000" d="M79.937,39.134c0,0-6.731,0-6.731,6.731v109.812c0,0,0,6.731,6.731,6.731h3.543
		c0,0,6.733,0,6.733-6.731V45.866c0,0,0-6.731-6.733-6.731H79.937z"/>
</g>
</svg>
